<?xml version="1.0" encoding="UTF-8"?>
<svg height="45px"
    version="1.1"
    viewBox="0 0 300 45"
    width="300px"
    xmlns="http://www.w3.org/2000/svg">
    <!-- Generator: Sketch 52.6 (67491) - http://www.bohemiancoding.com/sketch -->
    <title>xxxhdpi/logo</title>
    <desc>Created with Sketch.</desc>
    <g
        fill="none"
        fill-rule="evenodd"
        id="Mockups"
        stroke="none"
        stroke-width="1">
        <g
            id="Login"
            transform="translate(-604.000000, -158.000000)">
            <g
                id="logo"
                transform="translate(604.000000, 158.000000)">
                <g id="imago">
                    <path
                        d="M-2.13162821e-14,22.1814668 C6.67820724,23.1507197 11.6274936,23.9072635 14.8478591,24.4510982 C24.8966406,26.1480722 34.9263743,28.4926094 43.7430658,31.7548784 C55.6061451,36.144343 63.9573703,40.1492293 68.7967415,43.7695371 C69.3133836,42.7977624 70.0394077,41.3345645 70.9748138,39.3799434 C71.91022,37.4253223 72.5880378,35.4957262 73.0082672,33.5911553 C63.0276537,28.7376056 52.4957025,25.5123047 41.4124137,23.9152526 C35.0113313,22.9928855 30.3102653,22.4239633 22.0940685,22.1814668 C18.0874618,22.0632141 10.7227723,22.0632141 -2.13162821e-14,22.1814668 Z"
                        fill="#1E366C"
                        id="Path-2"></path>
                    <path
                        d="M54.1385662,25.4001481 L69.6016404,17.3765063 C70.4644332,19.01405 71.0691043,21.3305243 71.4156539,24.3259293 C71.7622035,27.3213344 71.7622035,29.6378087 71.4156539,31.2753523 C68.2918132,29.8539199 65.4504383,28.7325197 62.8915292,27.911152 C60.3326202,27.0897842 57.4149658,26.2527829 54.1385662,25.4001481 Z"
                        fill="#F7A700"
                        id="Path-3"></path>
                    <path
                        d="M48.0802618,22.7855137 L69.6731437,16.7960069 C67.419167,12.177662 64.5979864,8.63362949 61.209602,6.16390931 C57.8212177,3.69418913 54.0329342,1.89390148 49.8447516,0.763046364 L48.0802618,22.7855137 Z"
                        fill="#F7A700"
                        id="Path-4"></path>
                    <path
                        d="M42.4576545,20.975771 L49.4594128,0.566457312 C44.3976103,-0.247608592 39.7398801,0.0905245779 35.4862224,1.58085682 C31.2325647,3.07118907 27.8176564,5.19837623 25.2414975,7.9624183 L42.4576545,20.975771 Z"
                        fill="#F7A700"
                        id="Path-5"></path>
                    <path
                        d="M35.9272058,21.5147059 L24.2201411,8.64093137 C22.7240245,10.363555 21.428062,12.1825655 20.3322538,14.0979626 C19.2364456,16.0133598 18.4144823,18.0717408 17.866364,20.2731056 C20.7533075,20.3749123 23.496253,20.4939923 26.0952006,20.6303457 C28.6941482,20.7666991 31.9714832,21.0614858 35.9272058,21.5147059 Z"
                        fill="#F7A700"
                        id="Path-6"></path>
                </g>
                <g
                    fill="#1E366C"
                    id="tipo"
                    transform="translate(85.470085, 6.901961)">
                    <path
                        d="M6.83760684,17.254902 L12.452334,17.254902 C13.2807405,17.254902 14.0784533,17.185023 14.8454964,17.045263 C15.6125394,16.9055029 16.2875272,16.6347219 16.8704799,16.2329119 C17.4534327,15.8311018 17.9213219,15.2633352 18.2741617,14.529595 C18.6270015,13.7958549 18.8034188,12.8350191 18.8034188,11.6470588 C18.8034188,10.4590986 18.6270015,9.49826279 18.2741617,8.76452263 C17.9213219,8.03078248 17.4534327,7.46301588 16.8704799,7.06120579 C16.2875272,6.65939571 15.6125394,6.38861471 14.8454964,6.24885468 C14.0784533,6.10909465 13.2807405,6.03921569 12.452334,6.03921569 L6.83760684,6.03921569 L6.83760684,17.254902 Z M0,0 L14.9940667,0 C17.0739994,0 18.8434678,0.329869827 20.302525,0.989619377 C21.7615823,1.64936893 22.9489888,2.5205636 23.86478,3.60322953 C24.7805713,4.68589546 25.4480024,5.92079276 25.8670933,7.30795848 C26.2861842,8.6951242 26.4957265,10.1330183 26.4957265,11.621684 C26.4957265,13.0765163 26.2861842,14.5059522 25.8670933,15.9100346 C25.4480024,17.314117 24.7805713,18.5574725 23.86478,19.6401384 C22.9489888,20.7228043 21.7615823,21.593999 20.302525,22.2537486 C18.8434678,22.9134981 17.0739994,23.2433679 14.9940667,23.2433679 L7.31077163,23.2433679 L7.31077163,36.2352941 L0,36.2352941 L0,0 Z M29.9145299,10.1953399 L36.1515362,10.1953399 L36.1515362,15.0306119 L36.2439362,15.0306119 C36.5519381,14.2247292 36.9677343,13.47762 37.4913375,12.7892618 C38.0149406,12.1009037 38.6155352,11.5132897 39.2931393,11.0264023 C39.9707434,10.5395148 40.6945368,10.161763 41.4645415,9.89313541 C42.2345461,9.62450785 43.0353389,9.49019608 43.8669439,9.49019608 C44.2981465,9.49019608 44.7755422,9.57414093 45.2991453,9.74203316 L45.2991453,16.3905321 C44.9911435,16.3233752 44.6215468,16.2646138 44.1903442,16.2142462 C43.7591416,16.1638785 43.3433453,16.138695 42.9429429,16.138695 C41.7417357,16.138695 40.7253449,16.3569516 39.8937399,16.7934714 C39.0621349,17.2299912 38.3922409,17.8259997 37.8840379,18.5815147 C37.3758348,19.3370297 37.0139381,20.2184507 36.7983368,21.2258041 C36.5827355,22.2331574 36.4749365,23.3244405 36.4749365,24.4996861 L36.4749365,36.2352941 L29.9145299,36.2352941 L29.9145299,10.1953399 Z M78.2859783,14.8189158 L74.3589744,14.8189158 L74.3589744,9.99769319 L78.2859783,9.99769319 L78.2859783,7.96770473 C78.2859783,5.63320632 78.9481723,3.72165296 80.2725803,2.23298731 C81.5969882,0.744321661 83.5989702,0 86.2785863,0 C86.8637898,0 87.4489845,0.0253746021 88.034188,0.0761245675 C88.6193915,0.126874533 89.1891864,0.169165536 89.7435897,0.202998847 L89.7435897,5.58246828 C88.9735851,5.48096835 88.1727923,5.43021915 87.3411873,5.43021915 C86.447982,5.43021915 85.8088877,5.65859057 85.4238854,6.11534025 C85.0388831,6.57208994 84.8463848,7.34178621 84.8463848,8.42445213 L84.8463848,9.99769319 L89.3739894,9.99769319 L89.3739894,14.8189158 L84.8463848,14.8189158 L84.8463848,36.2352941 L78.2859783,36.2352941 L78.2859783,14.8189158 Z M114.529915,36.4420274 L108.344348,36.4420274 L108.344348,32.808731 L108.20689,32.808731 C107.382144,34.3226121 106.313044,35.4159542 104.999559,36.0887902 C103.686074,36.7616263 102.342063,37.0980392 100.967486,37.0980392 C99.2263549,37.0980392 97.7983432,36.8457295 96.6834082,36.3411025 C95.5684733,35.8364755 94.6902843,35.1215979 94.0488149,34.1964484 C93.4073455,33.2712989 92.9567963,32.1443154 92.6971539,30.8154643 C92.4375116,29.4866132 92.3076923,28.0148064 92.3076923,26.4 L92.3076923,10.3529412 L98.8139924,10.3529412 L98.8139924,25.0879763 C98.8139924,27.2410516 99.1194495,28.8474235 99.7303727,29.9071402 C100.341296,30.9668569 101.425668,31.4967074 102.983523,31.4967074 C104.7552,31.4967074 106.03812,30.916395 106.83232,29.7557529 C107.62652,28.5951107 108.023614,26.6859672 108.023614,24.0282649 L108.023614,10.3529412 L114.529915,10.3529412 L114.529915,36.4420274 Z M128.514056,9.62655313 L133.333333,9.62655313 L133.333333,14.4691401 L128.514056,14.4691401 L128.514056,27.5186376 C128.514056,28.7420341 128.699411,29.5576195 129.070127,29.9654184 C129.440842,30.3732172 130.182262,30.5771136 131.294408,30.5771136 C131.665124,30.5771136 132.020388,30.5601222 132.36021,30.526139 C132.700033,30.4921557 133.024404,30.4411816 133.333333,30.3732152 L133.333333,35.9804211 C132.77726,36.0823708 132.15941,36.1503363 131.479765,36.1843195 C130.80012,36.2183028 130.135932,36.2352941 129.487179,36.2352941 C128.467712,36.2352941 127.502322,36.158833 126.590979,36.0059084 C125.679637,35.8529839 124.876432,35.555635 124.181341,35.1138529 C123.486249,34.6720709 122.937907,34.0433904 122.536299,33.2277927 C122.134691,32.4121951 121.933889,31.3417392 121.933889,30.016393 L121.933889,14.4691401 L117.948718,14.4691401 L117.948718,9.62655313 L121.933889,9.62655313 L121.933889,1.7254902 L128.514056,1.7254902 L128.514056,9.62655313 Z M158.119658,36.4420274 L151.934091,36.4420274 L151.934091,32.808731 L151.796634,32.808731 C150.971888,34.3226121 149.902788,35.4159542 148.589303,36.0887902 C147.275818,36.7616263 145.931807,37.0980392 144.55723,37.0980392 C142.816098,37.0980392 141.388087,36.8457295 140.273152,36.3411025 C139.158217,35.8364755 138.280028,35.1215979 137.638558,34.1964484 C136.997089,33.2712989 136.54654,32.1443154 136.286898,30.8154643 C136.027255,29.4866132 135.897436,28.0148064 135.897436,26.4 L135.897436,10.3529412 L142.403736,10.3529412 L142.403736,25.0879763 C142.403736,27.2410516 142.709193,28.8474235 143.320116,29.9071402 C143.93104,30.9668569 145.015412,31.4967074 146.573266,31.4967074 C148.344944,31.4967074 149.627863,30.916395 150.422064,29.7557529 C151.216264,28.5951107 151.613358,26.6859672 151.613358,24.0282649 L151.613358,10.3529412 L158.119658,10.3529412 L158.119658,36.4420274 Z M164.102564,10.1953399 L170.33957,10.1953399 L170.33957,15.0306119 L170.43197,15.0306119 C170.739972,14.2247292 171.155769,13.47762 171.679372,12.7892618 C172.202975,12.1009037 172.803569,11.5132897 173.481173,11.0264023 C174.158778,10.5395148 174.882571,10.161763 175.652576,9.89313541 C176.42258,9.62450785 177.223373,9.49019608 178.054978,9.49019608 C178.486181,9.49019608 178.963576,9.57414093 179.487179,9.74203316 L179.487179,16.3905321 C179.179178,16.3233752 178.809581,16.2646138 178.378378,16.2142462 C177.947176,16.1638785 177.53138,16.138695 177.130977,16.138695 C175.92977,16.138695 174.913379,16.3569516 174.081774,16.7934714 C173.250169,17.2299912 172.580275,17.8259997 172.072072,18.5815147 C171.563869,19.3370297 171.201972,20.2184507 170.986371,21.2258041 C170.77077,22.2331574 170.662971,23.3244405 170.662971,24.4996861 L170.662971,36.2352941 L164.102564,36.2352941 L164.102564,10.1953399 Z M187.179487,24.1777146 C187.179487,25.0395952 187.281642,25.8806112 187.485954,26.7007879 C187.690266,27.5209645 188.039293,28.2577224 188.533047,28.9110835 C189.026801,29.5644446 189.682292,30.0857355 190.49954,30.4749719 C191.316788,30.8642083 192.338333,31.0588235 193.564205,31.0588235 C194.790077,31.0588235 195.820134,30.8642083 196.654408,30.4749719 C197.488682,30.0857355 198.152686,29.5644446 198.64644,28.9110835 C199.140194,28.2577224 199.489222,27.5209645 199.693534,26.7007879 C199.897846,25.8806112 200,25.0395952 200,24.1777146 C200,23.315834 199.897846,22.4678674 199.693534,21.6337895 C199.489222,20.7997115 199.140194,20.0629537 198.64644,19.4234939 C198.152686,18.7840341 197.488682,18.2627432 196.654408,17.8596055 C195.820134,17.4564678 194.790077,17.254902 193.564205,17.254902 C192.338333,17.254902 191.316788,17.4564678 190.49954,17.8596055 C189.682292,18.2627432 189.026801,18.7840341 188.533047,19.4234939 C188.039293,20.0629537 187.690266,20.7997115 187.485954,21.6337895 C187.281642,22.4678674 187.179487,23.315834 187.179487,24.1777146 Z M52.991453,24.1777146 C52.991453,25.0395952 53.0936075,25.8806112 53.2979194,26.7007879 C53.5022314,27.5209645 53.8512592,28.2577224 54.3450131,28.9110835 C54.8387671,29.5644446 55.4942582,30.0857355 56.3115061,30.4749719 C57.128754,30.8642083 58.1502986,31.0588235 59.3761705,31.0588235 C60.6020424,31.0588235 61.6320999,30.8642083 62.4663738,30.4749719 C63.3006478,30.0857355 63.9646517,29.5644446 64.4584057,28.9110835 C64.9521597,28.2577224 65.3011874,27.5209645 65.5054994,26.7007879 C65.7098114,25.8806112 65.8119658,25.0395952 65.8119658,24.1777146 C65.8119658,23.315834 65.7098114,22.4678674 65.5054994,21.6337895 C65.3011874,20.7997115 64.9521597,20.0629537 64.4584057,19.4234939 C63.9646517,18.7840341 63.3006478,18.2627432 62.4663738,17.8596055 C61.6320999,17.4564678 60.6020424,17.254902 59.3761705,17.254902 C58.1502986,17.254902 57.128754,17.4564678 56.3115061,17.8596055 C55.4942582,18.2627432 54.8387671,18.7840341 54.3450131,19.4234939 C53.8512592,20.0629537 53.5022314,20.7997115 53.2979194,21.6337895 C53.0936075,22.4678674 52.991453,23.315834 52.991453,24.1777146 Z M181.196581,24.2044406 C181.196581,22.2378794 181.489999,20.4537277 182.076843,18.8519319 C182.663687,17.2501362 183.497612,15.8862513 184.57864,14.7602364 C185.659669,13.6342216 186.956885,12.7619696 188.470325,12.1434544 C189.983766,11.5249392 191.6825,11.2156863 193.566579,11.2156863 C195.450658,11.2156863 197.157114,11.5249392 198.685997,12.1434544 C200.214881,12.7619696 201.519818,13.6342216 202.600847,14.7602364 C203.681876,15.8862513 204.5158,17.2501362 205.102644,18.8519319 C205.689488,20.4537277 205.982906,22.2378794 205.982906,24.2044406 C205.982906,26.1710018 205.689488,27.9472239 205.102644,29.5331603 C204.5158,31.1190967 203.681876,32.475052 202.600847,33.6010669 C201.519818,34.7270818 200.214881,35.5914041 198.685997,36.19406 C197.157114,36.7967158 195.450658,37.0980392 193.566579,37.0980392 C191.6825,37.0980392 189.983766,36.7967158 188.470325,36.19406 C186.956885,35.5914041 185.659669,34.7270818 184.57864,33.6010669 C183.497612,32.475052 182.663687,31.1190967 182.076843,29.5331603 C181.489999,27.9472239 181.196581,26.1710018 181.196581,24.2044406 Z M47.008547,24.2044406 C47.008547,22.2378794 47.3019647,20.4537277 47.888809,18.8519319 C48.4756533,17.2501362 49.3095774,15.8862513 50.3906063,14.7602364 C51.4716352,13.6342216 52.7688504,12.7619696 54.2822909,12.1434544 C55.7957314,11.5249392 57.4944656,11.2156863 59.3785446,11.2156863 C61.2626236,11.2156863 62.9690793,11.5249392 64.4979631,12.1434544 C66.0268468,12.7619696 67.3317836,13.6342216 68.4128125,14.7602364 C69.4938414,15.8862513 70.3277655,17.2501362 70.9146098,18.8519319 C71.5014541,20.4537277 71.7948718,22.2378794 71.7948718,24.2044406 C71.7948718,26.1710018 71.5014541,27.9472239 70.9146098,29.5331603 C70.3277655,31.1190967 69.4938414,32.475052 68.4128125,33.6010669 C67.3317836,34.7270818 66.0268468,35.5914041 64.4979631,36.19406 C62.9690793,36.7967158 61.2626236,37.0980392 59.3785446,37.0980392 C57.4944656,37.0980392 55.7957314,36.7967158 54.2822909,36.19406 C52.7688504,35.5914041 51.4716352,34.7270818 50.3906063,33.6010669 C49.3095774,32.475052 48.4756533,31.1190967 47.888809,29.5331603 C47.3019647,27.9472239 47.008547,26.1710018 47.008547,24.2044406 Z"
                        id="Profuturo"
                        stroke="#1E366C"></path>
                    <path
                        d="M209.295726,14.1628235 L210.023932,14.1628235 C210.181197,14.1628235 210.329914,14.1576471 210.470085,14.1472941 C210.610257,14.1369411 210.735042,14.1076081 210.844444,14.0592941 C210.953847,14.0109802 211.041025,13.9367848 211.105983,13.8367059 C211.17094,13.736627 211.203419,13.5968636 211.203419,13.4174118 C211.203419,13.2655679 211.174359,13.1447848 211.116239,13.0550588 C211.058119,12.9653329 210.982906,12.896314 210.890598,12.848 C210.79829,12.799686 210.692308,12.766902 210.57265,12.7496471 C210.452991,12.7323921 210.335043,12.7237647 210.218803,12.7237647 L209.295726,12.7237647 L209.295726,14.1628235 Z M208.598291,12.1543529 L210.331624,12.1543529 C210.86496,12.1543529 211.259828,12.2613323 211.516239,12.4752941 C211.772651,12.689256 211.900855,13.0136449 211.900855,13.4484706 C211.900855,13.8556883 211.788035,14.1541951 211.562393,14.344 C211.336751,14.5338049 211.056412,14.6459606 210.721368,14.6804706 L212.003419,16.6785882 L211.254701,16.6785882 L210.034188,14.7322353 L209.295726,14.7322353 L209.295726,16.6785882 L208.598291,16.6785882 L208.598291,12.1543529 Z M206.926496,14.4009412 C206.926496,14.8771789 207.006837,15.3171745 207.167521,15.7209412 C207.328206,16.1247079 207.550426,16.4749789 207.834188,16.7717647 C208.11795,17.0685505 208.45299,17.3014894 208.839316,17.4705882 C209.225643,17.6396871 209.644442,17.7242353 210.095726,17.7242353 C210.540173,17.7242353 210.953844,17.6396871 211.336752,17.4705882 C211.71966,17.3014894 212.05299,17.0685505 212.336752,16.7717647 C212.620514,16.4749789 212.842734,16.1247079 213.003419,15.7209412 C213.164103,15.3171745 213.244444,14.8771789 213.244444,14.4009412 C213.244444,13.9385075 213.164103,13.5071393 213.003419,13.1068235 C212.842734,12.7065078 212.620514,12.3596877 212.336752,12.0663529 C212.05299,11.7730181 211.71966,11.5418048 211.336752,11.3727059 C210.953844,11.203607 210.540173,11.1190588 210.095726,11.1190588 C209.644442,11.1190588 209.225643,11.203607 208.839316,11.3727059 C208.45299,11.5418048 208.11795,11.7730181 207.834188,12.0663529 C207.550426,12.3596877 207.328206,12.7065078 207.167521,13.1068235 C207.006837,13.5071393 206.926496,13.9385075 206.926496,14.4009412 Z M206.22906,14.4009412 C206.22906,13.8556835 206.331623,13.3483945 206.536752,12.8790588 C206.741881,12.4097231 207.020511,12.0025115 207.37265,11.6574118 C207.724788,11.312312 208.13504,11.0414127 208.603419,10.8447059 C209.071797,10.647999 209.569228,10.5496471 210.095726,10.5496471 C210.622225,10.5496471 211.117946,10.647999 211.582906,10.8447059 C212.047866,11.0414127 212.454699,11.312312 212.803419,11.6574118 C213.152138,12.0025115 213.429059,12.4097231 213.634188,12.8790588 C213.839317,13.3483945 213.94188,13.8556835 213.94188,14.4009412 C213.94188,14.9600028 213.839317,15.4759192 213.634188,15.9487059 C213.429059,16.4214926 213.152138,16.8321551 212.803419,17.1807059 C212.454699,17.5292566 212.047866,17.8001559 211.582906,17.9934118 C211.117946,18.1866676 210.622225,18.2832941 210.095726,18.2832941 C209.569228,18.2832941 209.071797,18.1866676 208.603419,17.9934118 C208.13504,17.8001559 207.724788,17.5292566 207.37265,17.1807059 C207.020511,16.8321551 206.741881,16.4214926 206.536752,15.9487059 C206.331623,15.4759192 206.22906,14.9600028 206.22906,14.4009412 Z"
                        id="®"></path>
                </g>
            </g>
        </g>
    </g>
</svg>